<?xml version="1.0" encoding="UTF-8"?>
<svg id="Layer_1" data-name="Layer 1" xmlns="http://www.w3.org/2000/svg" xmlns:xlink="http://www.w3.org/1999/xlink" viewBox="0 0 1280 1024">
  <defs>
    <style>
      .cls-1 {
        fill: url(#linear-gradient-2);
      }

      .cls-2 {
        fill: #fff;
      }

      .cls-3 {
        fill: #23bded;
      }

      .cls-4 {
        fill: url(#linear-gradient-3);
      }

      .cls-5 {
        fill: url(#linear-gradient);
      }

      .cls-6 {
        fill: url(#linear-gradient-4);
      }
    </style>
    <linearGradient id="linear-gradient" x1="318.79" y1="405.35" x2="913.85" y2="257.12" gradientUnits="userSpaceOnUse">
      <stop offset="0" stop-color="#20d0fd"/>
      <stop offset=".53" stop-color="#0dfefe"/>
      <stop offset="1" stop-color="#13f4fe"/>
    </linearGradient>
    <linearGradient id="linear-gradient-2" x1="345.68" y1="427.93" x2="934.05" y2="427.93" gradientUnits="userSpaceOnUse">
      <stop offset="0" stop-color="#23afdf"/>
      <stop offset=".53" stop-color="#18e9fe"/>
      <stop offset="1" stop-color="#1be2fe"/>
    </linearGradient>
    <linearGradient id="linear-gradient-3" x1="295.06" y1="516.42" x2="979.49" y2="516.42" gradientUnits="userSpaceOnUse">
      <stop offset="0" stop-color="#2397c3"/>
      <stop offset="1" stop-color="#23c2f2"/>
    </linearGradient>
    <linearGradient id="linear-gradient-4" x1="402.5" y1="749.78" x2="989.09" y2="620.61" gradientUnits="userSpaceOnUse">
      <stop offset="0" stop-color="#205272"/>
      <stop offset="1" stop-color="#2388b2"/>
    </linearGradient>
  </defs>
  <path class="cls-5" d="m917.28,359.78l-25.32-3.09c.42-6.89.39-14.77.1-23.22-181.05-95.61-349.02-92.35-504.59-.34-.66,25.13.78,51.05,3.75,77.56l-24.16,6.93c-4.43-30.04-6.35-62.57-4.25-99.09,93.6-56.53,182.29-80.89,274.63-80.76,92.34.12,185.32,28.7,279.47,80.76.4,12.81.49,26.68.37,41.25Z"/>
  <path class="cls-1" d="m357.56,497.38c.56-.82,1.24-3.53.26-13.32s-3.12-19.32-3.12-19.32l-9.03-2.44c20.89-22.1,52.9-37.64,93.9-47.9-3.17,4.06-5.8,8.15-7.72,12.26,24.44-27.96,59.15-34.54,92.62-13.43-3.03-3.62-7.52-6.98-12.44-10.26,0,0,41.46-3.18,46.49-3.18s4.9,1.15,22.28,2.56c17.38,1.41,74.68.35,132.44-1.65s151.88-15.24,162.06-16.47,16.21-6.32,27.32-7.18c7.33-.56,20.41.76,20.41.76-1.68,2.71-5.4,7.59-4.65,19.19s12.79,24.69,15.03,40.4-2.19,22.58-2.19,22.58c0,0,.13-7.93-9.13-18.99-9.83-11.73-31.32-21-31.85-21.15s-.44-.97.51-2.85,3.64-5.93,3.64-5.93l17.96-.18s-2.03-3.21-5.85-7.66-6.52-5.21-6.52-5.21c-16.64,1.33-33.11,2.64-41.36,2.85-6.2-2.3-12.14-4.16-17.47-5.01,10.32,4.42,18.7,10.8,25.81,18.49-24.22-13.94-53.6-13.63-74.08-5.19-17.74,7.31-35.51,20.43-43.62,44.99,2.66-20.83,10.7-40.07,34.59-54.62-6.93,1.61-14.05,5.1-21.31,9.88l-222.97,18.79c5.44,8.13,9.28,16.56,11.16,25.37-16.85-30.66-46.27-40.66-68.41-39.81-21.55.82-46.94,12.71-62.88,40.23.55-2.4,3-10.87,3-10.87-36.62,3.44-57.11,14.74-59.34,15.84s-1.59,1.65-.84,2.16,26.16,12.77,26.16,12.77l-26.01-7.04s3.12,25.32,4.07,29.89c.65,3.13,3.79,3.42,9.02,4.15s23.21,1.61,23.21,1.61l-49.99,3.88s8.31-8.18,8.87-9Zm388.12-110.08l5.41-27.54c-13.25-1.72-49.9-3.94-72.26-2.1-22.46,1.85-24.97,3.97-33.35,8.16-8.38,4.19-63.46,30.88-63.46,30.88-7.84-.48-14.83-1.21-19.39-2.6,21.77-9.47,50.35-23,81.15-37.84,36.91-7.68,72.72-8.04,108.06-5,41.65,3.58,82.38,14.03,122.53,27.41-61.97,9.54-121.55,15.04-178.12,15.44,0,0,28.06-4.24,39.94-5.59,2.2-.25,5.52-.68,9.5-1.23Zm9.11-1.3c17.45-2.56,40.05-6.23,46.01-8.15,6.87-2.21,11.49-5.32.41-9.21-9.21-3.23-28.56-6.03-42.36-7.87l-4.06,25.22Zm-129.63,11.48l-36.02-.52s15.44-7.82,20.71-10.01c5.27-2.18,5.91-2.03,9.4,1.1,3.49,3.13,5.91,9.42,5.91,9.42Zm-4.08-.77c.16-.19-.54-1.62-1.94-3.96-1.4-2.34-3.96-4.47-7.01-3.93s-10.12,4.51-10.12,4.51c12.47-2.43,14.99.87,16.9,2.38,1.24.99,2.01,1.18,2.18.99Z"/>
  <polygon class="cls-4" points="295.06 529.41 295.24 553.76 979.49 479.07 295.06 529.41"/>
  <path class="cls-6" d="m984.94,611.05l-684.76,74.74,194.2-14.28c40.57,43.18,85.81,81.35,135.51,114.72,60.45-40.91,112.74-85.84,154.42-136.03l200.46-14.74.17-24.42Zm-354.68,144.77c-33.02-22.52-67.65-52.7-103.08-86.72l221.07-16.25c-34.7,37.75-74.29,71.88-117.99,102.97Z"/>
  <g>
    <path class="cls-2" d="m548.86,540.35l-12.44,19.54s-29.91,2.25-38.69,3.49-16.32,7.94-16.06,16.99,6.62,16.37,20.25,16.19,51.29-3.99,51.29-3.99l-12.32,19.35s-28.18,2.97-40.65,3.38-34.47-7.35-39.24-25.06,1.93-31.37,16-39.35c12.96-7.35,28.26-7.35,36.34-7.97s35.51-2.56,35.51-2.56Z"/>
    <ellipse class="cls-2" cx="571.36" cy="600.03" rx="12.12" ry="10.44" transform="translate(-49.01 50.82) rotate(-4.88)"/>
    <path class="cls-2" d="m676.86,529.7l-12.44,19.54s-29.91,2.25-38.69,3.49-16.32,7.94-16.06,16.99,6.62,16.37,20.25,16.19,51.29-3.99,51.29-3.99l-12.32,19.35s-28.18,2.97-40.65,3.38-34.47-7.35-39.24-25.06,1.93-31.37,16-39.35c12.96-7.35,28.26-7.35,36.34-7.97s35.51-2.56,35.51-2.56Z"/>
    <path class="cls-2" d="m804.62,518.88l-12.44,19.54s-29.91,2.25-38.69,3.49-16.32,7.94-16.06,16.99,6.62,16.37,20.25,16.19,51.29-3.99,51.29-3.99l-12.32,19.35s-28.18,2.97-40.65,3.38-34.47-7.35-39.24-25.06,1.93-31.37,16-39.35c12.96-7.35,28.26-7.35,36.34-7.97s35.51-2.56,35.51-2.56Z"/>
    <ellipse class="cls-2" cx="699.36" cy="589.38" rx="12.12" ry="10.44" transform="translate(-47.64 61.68) rotate(-4.88)"/>
  </g>
  <g>
    <path class="cls-2" d="m345.38,660.28c-1.23.12-2.17-.08-2.82-.61-.65-.53-1.03-1.41-1.16-2.65l-.53-5.3c-.12-1.24.08-2.18.61-2.83.53-.64,1.42-1.03,2.64-1.15l5.34-.53c1.23-.12,2.17.08,2.82.61.65.53,1.03,1.41,1.16,2.65l.07.7c.06.6-.21.93-.81.98l-2.06.2c-.51.05-.8-.18-.85-.69v-.13c-.05-.41-.16-.68-.35-.83-.18-.14-.49-.2-.92-.15l-2.69.27c-.43.04-.72.16-.87.34-.15.18-.2.49-.16.92l.38,3.8c.04.43.16.72.34.87.18.15.49.21.92.16l2.69-.27c.43-.04.72-.16.87-.34.15-.18.2-.49.16-.92l-.02-.2c-.05-.51.18-.8.7-.85l2.06-.2c.6-.06.92.21.98.81l.08.82c.12,1.24-.08,2.19-.61,2.83-.53.64-1.41,1.03-2.64,1.15l-5.34.53Z"/>
    <path class="cls-2" d="m388.37,654.95c.16.3.19.55.07.76-.11.21-.33.33-.67.36l-2.4.24c-.5.05-.87-.16-1.09-.63l-.57-1.17-5.12.51-.33,1.26c-.13.51-.45.79-.95.84l-2.19.22c-.34.03-.58-.04-.73-.23-.15-.19-.18-.44-.07-.75l3.48-11.24c.14-.48.46-.75.95-.8l2.9-.29c.49-.05.85.15,1.09.6l5.62,10.33Zm-9.09-2.7l3.21-.32-2.03-4.29-1.17,4.6Z"/>
    <path class="cls-2" d="m421.26,651.67c.22.29.28.55.18.76-.1.22-.33.34-.69.37l-2.22.22c-.49.05-.87-.12-1.14-.5l-2.49-3.21-2.15.21.31,3.13c.06.6-.21.92-.81.98l-2.08.21c-.6.06-.93-.21-.98-.81l-1.07-10.75c-.06-.6.21-.92.81-.98l8.02-.8c1.15-.11,2,.06,2.57.52s.9,1.27,1.02,2.41l.17,1.7c.1.98-.01,1.74-.32,2.28-.31.54-.86.92-1.63,1.13l2.5,3.1Zm-9.06-7.8l.29,2.9,3.48-.34c.37-.04.62-.13.74-.28.12-.15.17-.41.13-.78l-.1-.97c-.04-.37-.13-.62-.28-.74-.15-.12-.41-.17-.78-.13l-3.47.34Z"/>
    <path class="cls-2" d="m471.7,647.75c-1.23.12-2.17-.08-2.82-.61-.65-.53-1.04-1.41-1.16-2.65l-.53-5.3c-.12-1.24.08-2.18.61-2.83.53-.64,1.41-1.03,2.64-1.15l5.34-.53c1.23-.12,2.17.08,2.82.61.65.53,1.03,1.41,1.16,2.65l.07.7c.06.6-.21.93-.81.98l-2.06.2c-.51.05-.8-.18-.85-.69v-.13c-.05-.41-.16-.68-.35-.83-.18-.14-.49-.2-.92-.15l-2.69.27c-.43.04-.72.16-.87.34s-.2.49-.16.92l.38,3.8c.04.43.16.72.34.87.18.15.49.2.92.16l2.69-.27c.43-.04.72-.16.87-.34.15-.18.2-.49.16-.92l-.02-.2c-.05-.51.18-.8.69-.85l2.06-.2c.6-.06.93.21.98.81l.08.82c.12,1.24-.08,2.19-.61,2.83-.53.64-1.41,1.03-2.64,1.15l-5.34.53Z"/>
    <path class="cls-2" d="m505.5,644.4c-1.23.12-2.17-.08-2.82-.61-.65-.53-1.04-1.41-1.16-2.65l-.53-5.3c-.12-1.24.08-2.19.61-2.83.53-.64,1.41-1.03,2.64-1.15l5.84-.58c1.23-.12,2.17.08,2.82.61.65.53,1.03,1.41,1.16,2.65l.53,5.3c.12,1.24-.08,2.18-.61,2.83-.53.64-1.42,1.03-2.64,1.15l-5.84.58Zm1.07-3.42l3.05-.3c.42-.04.7-.15.86-.34.16-.18.21-.49.17-.92l-.37-3.69c-.04-.43-.16-.72-.35-.87-.19-.15-.49-.21-.91-.16l-3.05.3c-.43.04-.72.16-.87.34-.15.18-.2.49-.16.92l.37,3.69c.04.43.16.72.34.87.18.15.49.2.92.16Z"/>
    <path class="cls-2" d="m545.23,637c.6-.06.93.21.98.81l.16,1.63c.06.6-.21.93-.81.98l-8.31.82c-.6.06-.93-.21-.98-.81l-1.07-10.75c-.06-.6.21-.92.81-.98l2.08-.21c.6-.06.92.21.98.81l.82,8.22,5.34-.53Z"/>
    <path class="cls-2" d="m576.25,633.92c.6-.06.92.21.98.81l.16,1.63c.06.6-.21.93-.81.98l-8.31.82c-.6.06-.93-.21-.99-.81l-1.07-10.75c-.06-.6.21-.92.81-.98l2.08-.21c.6-.06.92.21.98.81l.82,8.22,5.34-.53Z"/>
    <path class="cls-2" d="m597.33,623.53c-.06-.6.21-.92.81-.98l2.15-.21c.6-.06.92.21.98.81l1.07,10.75c.06.6-.21.92-.81.98l-2.15.21c-.6.06-.93-.21-.98-.81l-1.07-10.75Z"/>
    <path class="cls-2" d="m623.64,629.82l-.04-.39c-.05-.54.19-.83.73-.89l2.29-.23c.42-.04.65.14.69.55v.04c.03.25.1.42.23.5.12.08.33.11.63.08l3.55-.35c.3-.03.5-.11.6-.23.1-.12.14-.34.11-.63l-.04-.45c-.03-.3-.1-.49-.22-.58-.12-.09-.33-.13-.65-.13l-5.1.05c-1.01,0-1.76-.18-2.24-.56-.48-.37-.77-1.04-.87-1.99l-.17-1.68c-.1-.98.06-1.72.48-2.22.41-.5,1.11-.8,2.07-.89l6.63-.66c.97-.1,1.7.06,2.21.47.51.41.81,1.1.9,2.08l.02.21c.05.54-.19.83-.73.89l-2.4.24c-.35.03-.54-.13-.57-.48v-.04c-.04-.38-.32-.55-.85-.49l-3.12.31c-.3.03-.5.11-.6.23-.1.13-.14.34-.11.64l.02.23c.03.29.1.48.23.57.12.1.34.14.64.14l5.1-.05c1.01,0,1.76.18,2.24.55.48.37.77,1.04.87,2l.19,1.92c.1.98-.06,1.72-.48,2.22-.42.5-1.11.8-2.07.89l-7.06.7c-.97.1-1.7-.06-2.21-.47-.5-.41-.81-1.1-.9-2.08Z"/>
    <path class="cls-2" d="m656.95,617.62c-.06-.6.21-.92.81-.98l2.15-.21c.6-.06.93.21.98.81l1.07,10.75c.06.6-.21.92-.81.98l-2.15.21c-.6.06-.93-.21-.98-.81l-1.07-10.75Z"/>
    <path class="cls-2" d="m687.16,626.38c-1.23.12-2.17-.08-2.82-.61-.65-.53-1.04-1.41-1.16-2.65l-.53-5.3c-.12-1.24.08-2.19.61-2.83.53-.64,1.41-1.03,2.64-1.15l5.84-.58c1.23-.12,2.17.08,2.82.61.65.53,1.04,1.41,1.16,2.65l.53,5.3c.12,1.24-.08,2.18-.62,2.83-.53.64-1.41,1.03-2.64,1.15l-5.84.58Zm1.07-3.42l3.05-.3c.42-.04.7-.15.86-.34.16-.18.21-.49.17-.92l-.37-3.69c-.04-.43-.16-.72-.35-.87-.19-.15-.49-.2-.91-.16l-3.05.3c-.43.04-.72.16-.87.34s-.2.49-.16.92l.37,3.69c.04.43.15.72.34.87s.49.2.92.16Z"/>
    <path class="cls-2" d="m718.92,623.23c-.6.06-.92-.21-.98-.81l-1.07-10.75c-.06-.6.21-.92.81-.98l1.7-.17c.45-.04.84.09,1.16.39l6.09,5.76-.59-5.91c-.06-.6.21-.92.81-.98l1.93-.19c.6-.06.93.21.98.81l1.07,10.75c.06.6-.21.93-.81.98l-1.56.15c-.47.05-.85-.08-1.14-.39l-6.27-5.94.61,6.11c.06.6-.21.93-.81.98l-1.94.19Z"/>
    <path class="cls-2" d="m781.19,617.05c-1.23.12-2.17-.08-2.82-.61-.65-.53-1.04-1.41-1.16-2.65l-.53-5.3c-.12-1.24.08-2.19.62-2.83.53-.64,1.41-1.03,2.64-1.15l5.34-.53c1.23-.12,2.17.08,2.82.61.65.53,1.04,1.41,1.16,2.65l.07.7c.06.6-.21.93-.81.98l-2.06.2c-.51.05-.8-.18-.85-.69v-.13c-.05-.41-.16-.68-.35-.83-.18-.14-.49-.2-.92-.15l-2.69.27c-.43.04-.72.16-.87.34-.15.18-.2.49-.16.92l.38,3.8c.04.43.16.72.34.87.18.15.49.21.92.16l2.69-.27c.43-.04.72-.16.87-.34.15-.18.2-.49.16-.92l-.02-.2c-.05-.51.18-.8.69-.85l2.06-.2c.6-.06.93.21.98.81l.08.82c.12,1.24-.08,2.18-.62,2.83-.53.64-1.41,1.03-2.64,1.15l-5.34.53Z"/>
    <path class="cls-2" d="m821.31,609.98c.6-.06.93.21.98.81l.13,1.27c.06.6-.21.93-.81.98l-9.21.91c-.6.06-.92-.21-.98-.81l-1.07-10.75c-.06-.6.21-.92.81-.98l9.03-.9c.6-.06.93.21.98.81l.13,1.27c.06.6-.21.92-.81.98l-6.05.6.17,1.76,5.48-.54c.5-.05.78.18.83.68l.11,1.15c.05.5-.18.78-.68.83l-5.48.54.2,2.01,6.23-.62Z"/>
    <path class="cls-2" d="m844.54,610.77c-.6.06-.92-.21-.98-.81l-1.07-10.75c-.06-.6.21-.92.81-.98l1.7-.17c.45-.04.84.09,1.16.39l6.09,5.76-.59-5.91c-.06-.6.21-.92.81-.98l1.93-.19c.6-.06.93.21.98.81l1.07,10.75c.06.6-.21.93-.81.98l-1.56.15c-.47.05-.85-.08-1.14-.39l-6.27-5.94.61,6.11c.06.6-.21.93-.81.98l-1.93.19Z"/>
    <path class="cls-2" d="m887.29,593.87c.6-.06.93.21.98.81l.16,1.63c.06.6-.21.92-.81.98l-3.15.31.82,8.22c.06.6-.21.92-.81.98l-2.08.21c-.6.06-.92-.21-.98-.81l-.82-8.22-3.15.31c-.6.06-.93-.21-.98-.81l-.16-1.63c-.06-.6.21-.92.81-.98l10.17-1.01Z"/>
    <path class="cls-2" d="m920.15,600.18c.6-.06.93.21.99.81l.13,1.27c.06.6-.21.92-.81.98l-9.21.91c-.6.06-.92-.21-.98-.81l-1.07-10.75c-.06-.6.21-.92.81-.98l9.03-.89c.6-.06.93.21.99.81l.13,1.27c.06.6-.21.92-.81.98l-6.05.6.17,1.76,5.48-.54c.5-.05.78.18.83.68l.11,1.15c.05.5-.18.78-.68.83l-5.48.54.2,2.01,6.23-.62Z"/>
    <path class="cls-2" d="m954.45,598.79c.22.29.28.55.18.76-.1.21-.33.34-.69.37l-2.22.22c-.49.05-.87-.12-1.14-.5l-2.49-3.21-2.15.21.31,3.13c.06.6-.21.93-.81.98l-2.08.21c-.6.06-.92-.21-.98-.81l-1.07-10.75c-.06-.6.21-.92.81-.98l8.03-.8c1.15-.11,2,.06,2.57.52.56.46.9,1.27,1.02,2.41l.17,1.7c.1.98-.01,1.74-.33,2.28-.31.54-.86.92-1.63,1.13l2.5,3.1Zm-9.06-7.8l.29,2.9,3.47-.34c.37-.04.62-.13.74-.28.12-.15.17-.41.13-.78l-.1-.97c-.04-.37-.13-.62-.28-.74-.15-.12-.41-.17-.78-.13l-3.48.34Z"/>
  </g>
  <path class="cls-3" d="m553.75,433.7c9.65,21.1,18.9,41.15,25.28,53.43l162.95-13.88-154.63.44-33.6-39.99Z"/>
</svg>